{
	"asset":{
		"generator":"Khronos glTF Blender I/O v4.3.47",
		"version":"2.0"
	},
	"extensionsUsed":[
		"KHR_materials_specular",
		"KHR_materials_ior"
	],
	"scene":0,
	"scenes":[
		{
			"name":"Scene",
			"nodes":[
				0,
				1,
				2,
				3,
				4,
				5,
				6,
				7,
				8,
				9,
				10,
				11
			]
		}
	],
	"nodes":[
		{
			"mesh":0,
			"name":"Phone",
			"rotation":[
				-0.7071068286895752,
				0,
				0,
				0.7071068286895752
			],
			"scale":[
				248.07821655273438,
				651.7134399414062,
				225.2429962158203
			],
			"translation":[
				0.442195862531662,
				-0.01786530576646328,
				-0.46802639961242676
			]
		},
		{
			"name":"FrontFace",
			"scale":[
				0.021858057007193565,
				0.021858057007193565,
				0.021858057007193565
			],
			"translation":[
				-0.0004657963290810585,
				0.00242082541808486,
				0.001088916091248393
			]
		},
		{
			"mesh":1,
			"name":"Speakers",
			"rotation":[
				0.7071068286895752,
				0,
				0,
				0.7071068286895752
			],
			"scale":[
				0.0006906366907060146,
				0.0006906366907060146,
				0.0006906366907060146
			],
			"translation":[
				0.013269012793898582,
				0.00040257052751258016,
				0.05476999282836914
			]
		},
		{
			"name":"BackSide",
			"rotation":[
				0,
				0,
				1,
				7.121489643379785e-15
			],
			"scale":[
				0.02157643623650074,
				0.02157643623650074,
				0.02157643623650074
			],
			"translation":[
				-0.013042787089943886,
				-0.00343161728233099,
				0.000484029995277524
			]
		},
		{
			"mesh":2,
			"name":"BackCamera",
			"scale":[
				0.011861010454595089,
				0.011861010454595089,
				0.011861010454595089
			],
			"translation":[
				-0.01166222058236599,
				0.0002880784450098872,
				-0.03879840672016144
			]
		},
		{
			"mesh":3,
			"name":"BackCameraLens",
			"scale":[
				-0.004871188662946224,
				-0.0005932672647759318,
				-0.004871188662946224
			],
			"translation":[
				-0.01630529761314392,
				-0.0032641873694956303,
				-0.04434159770607948
			]
		},
		{
			"mesh":4,
			"name":"Flash",
			"rotation":[
				0,
				1,
				0,
				0
			],
			"scale":[
				-0.002372097922489047,
				-0.0007135045598261058,
				-0.002372097922489047
			],
			"translation":[
				-0.005773002281785011,
				-0.0032278227154165506,
				-0.03861421346664429
			]
		},
		{
			"mesh":5,
			"name":"FrontSpeaker",
			"scale":[
				1,
				1.2515132427215576,
				1
			],
			"translation":[
				-3.724217094713822e-05,
				0.0019999337382614613,
				-0.04842860624194145
			]
		},
		{
			"mesh":6,
			"name":"Cylinder",
			"scale":[
				0.0010950608411803842,
				0.0010950608411803842,
				0.0010950608411803842
			],
			"translation":[
				0.005802661180496216,
				0.0028052343986928463,
				-0.048434291034936905
			]
		},
		{
			"mesh":7,
			"name":"FrontCameraLens",
			"scale":[
				0.3115828335285187,
				0.10075255483388901,
				0.3115828335285187
			],
			"translation":[
				0.00578682404011488,
				0.002238604472950101,
				-0.04845781251788139
			]
		},
		{
			"mesh":8,
			"name":"PhoneHolder",
			"rotation":[
				0,
				0,
				0.7071068286895752,
				0.7071068286895752
			],
			"scale":[
				7.469913005828857,
				2.780343532562256,
				0.2755400836467743
			],
			"translation":[
				-0.4463588297367096,
				0.011963558383286,
				0.46388906240463257
			]
		},
		{
			"mesh":9,
			"name":"Rubber",
			"rotation":[
				0,
				0.9997323751449585,
				0.02313370257616043,
				1.2207585246797398e-18
			],
			"scale":[
				-0.0112230833619833,
				-0.000649360241368413,
				-0.002937216777354479
			],
			"translation":[
				-0.003990387078374624,
				-0.0296940915286541,
				-0.005472427234053612
			]
		}
	],
	"materials":[
		{
			"doubleSided":true,
			"name":"Back",
			"pbrMetallicRoughness":{
				"baseColorFactor":[
					0.4969295561313629,
					0.44520139694213867,
					0.8148468136787415,
					1
				],
				"metallicFactor":0.8897727131843567,
				"roughnessFactor":0.9272727370262146
			}
		},
		{
			"doubleSided":true,
			"name":"Black.001",
			"pbrMetallicRoughness":{
				"baseColorFactor":[
					0,
					0,
					0,
					1
				],
				"metallicFactor":0,
				"roughnessFactor":0.968181848526001
			}
		},
		{
			"doubleSided":true,
			"extensions":{
				"KHR_materials_specular":{
					"specularColorFactor":[
						1.7272727489471436,
						1.7272727489471436,
						1.7272727489471436
					]
				},
				"KHR_materials_ior":{
					"ior":1.6000001430511475
				}
			},
			"name":"Screen",
			"pbrMetallicRoughness":{
				"baseColorFactor":[
					0,
					0,
					0,
					1
				],
				"metallicFactor":0,
				"roughnessFactor":0
			}
		},
		{
			"doubleSided":true,
			"name":"Logo",
			"pbrMetallicRoughness":{
				"baseColorFactor":[
					0.35553622245788574,
					0.35553622245788574,
					0.35553622245788574,
					1
				],
				"metallicFactor":0.5,
				"roughnessFactor":0.13181817531585693
			}
		},
		{
			"alphaMode":"BLEND",
			"doubleSided":true,
			"extensions":{
				"KHR_materials_specular":{
					"specularFactor":0.4363636374473572
				}
			},
			"name":"Glass",
			"pbrMetallicRoughness":{
				"baseColorFactor":[
					0.800000011920929,
					0.800000011920929,
					0.800000011920929,
					0.41363638639450073
				],
				"metallicFactor":0,
				"roughnessFactor":0
			}
		},
		{
			"doubleSided":true,
			"extensions":{
				"KHR_materials_specular":{
					"specularFactor":0.6181818246841431
				}
			},
			"name":"Material.004",
			"pbrMetallicRoughness":{
				"baseColorFactor":[
					0,
					0,
					0,
					1
				],
				"metallicFactor":0.05000000074505806,
				"roughnessFactor":0.7545454502105713
			}
		},
		{
			"doubleSided":true,
			"name":"rubber"
		}
	],
	"meshes":[
		{
			"name":"Cube",
			"primitives":[
				{
					"attributes":{
						"POSITION":0,
						"NORMAL":1,
						"TEXCOORD_0":2
					},
					"indices":3,
					"material":0
				},
				{
					"attributes":{
						"POSITION":4,
						"NORMAL":5,
						"TEXCOORD_0":6
					},
					"indices":7,
					"material":1
				},
				{
					"attributes":{
						"POSITION":8,
						"NORMAL":9,
						"TEXCOORD_0":10
					},
					"indices":11,
					"material":2
				},
				{
					"attributes":{
						"POSITION":12,
						"NORMAL":13,
						"TEXCOORD_0":14
					},
					"indices":15,
					"material":3
				},
				{
					"attributes":{
						"POSITION":16,
						"NORMAL":17,
						"TEXCOORD_0":18
					},
					"indices":19,
					"material":4
				}
			]
		},
		{
			"name":"Cylinder",
			"primitives":[
				{
					"attributes":{
						"POSITION":20,
						"NORMAL":21,
						"TEXCOORD_0":22
					},
					"indices":23
				}
			]
		},
		{
			"name":"Plane",
			"primitives":[
				{
					"attributes":{
						"POSITION":24,
						"NORMAL":25,
						"TEXCOORD_0":26
					},
					"indices":27
				}
			]
		},
		{
			"name":"Cylinder.001",
			"primitives":[
				{
					"attributes":{
						"POSITION":28,
						"NORMAL":29,
						"TEXCOORD_0":30
					},
					"indices":31
				}
			]
		},
		{
			"name":"Cylinder.002",
			"primitives":[
				{
					"attributes":{
						"POSITION":32,
						"NORMAL":33,
						"TEXCOORD_0":34
					},
					"indices":35
				}
			]
		},
		{
			"name":"Plane.002",
			"primitives":[
				{
					"attributes":{
						"POSITION":36,
						"NORMAL":37,
						"TEXCOORD_0":38
					},
					"indices":39
				}
			]
		},
		{
			"name":"Cylinder.003",
			"primitives":[
				{
					"attributes":{
						"POSITION":40,
						"NORMAL":41,
						"TEXCOORD_0":42
					},
					"indices":43
				}
			]
		},
		{
			"name":"Sphere",
			"primitives":[
				{
					"attributes":{
						"POSITION":44,
						"NORMAL":45,
						"TEXCOORD_0":46
					},
					"indices":47
				}
			]
		},
		{
			"name":"Cube.001",
			"primitives":[
				{
					"attributes":{
						"POSITION":48,
						"NORMAL":49,
						"TEXCOORD_0":50
					},
					"indices":51,
					"material":5
				},
				{
					"attributes":{
						"POSITION":52,
						"NORMAL":53,
						"TEXCOORD_0":54
					},
					"indices":55,
					"material":6
				}
			]
		},
		{
			"name":"Cube.003",
			"primitives":[
				{
					"attributes":{
						"POSITION":56,
						"NORMAL":57,
						"TEXCOORD_0":58
					},
					"indices":59
				}
			]
		}
	],
	"accessors":[
		{
			"bufferView":0,
			"componentType":5126,
			"count":11171,
			"max":[
				0.050953373312950134,
				0.0008787187398411334,
				0.026569098234176636
			],
			"min":[
				-0.047481730580329895,
				-0.0013429347891360521,
				-0.026569096371531487
			],
			"type":"VEC3"
		},
		{
			"bufferView":1,
			"componentType":5126,
			"count":11171,
			"type":"VEC3"
		},
		{
			"bufferView":2,
			"componentType":5126,
			"count":11171,
			"type":"VEC2"
		},
		{
			"bufferView":3,
			"componentType":5123,
			"count":35628,
			"type":"SCALAR"
		},
		{
			"bufferView":4,
			"componentType":5126,
			"count":1496,
			"max":[
				0.050939373672008514,
				0.0008787187398411334,
				0.025298580527305603
			],
			"min":[
				-0.04653865844011307,
				-0.0011440413072705269,
				-0.025298580527305603
			],
			"type":"VEC3"
		},
		{
			"bufferView":5,
			"componentType":5126,
			"count":1496,
			"type":"VEC3"
		},
		{
			"bufferView":6,
			"componentType":5126,
			"count":1496,
			"type":"VEC2"
		},
		{
			"bufferView":7,
			"componentType":5123,
			"count":4713,
			"type":"SCALAR"
		},
		{
			"bufferView":8,
			"componentType":5126,
			"count":128,
			"max":[
				0.046696942299604416,
				-0.0012962152250111103,
				-0.01175788976252079
			],
			"min":[
				0.02844652719795704,
				-0.001317439367994666,
				-0.02091960608959198
			],
			"type":"VEC3"
		},
		{
			"bufferView":9,
			"componentType":5126,
			"count":128,
			"type":"VEC3"
		},
		{
			"bufferView":10,
			"componentType":5126,
			"count":128,
			"type":"VEC2"
		},
		{
			"bufferView":11,
			"componentType":5123,
			"count":384,
			"type":"SCALAR"
		},
		{
			"bufferView":12,
			"componentType":5126,
			"count":197,
			"max":[
				0.04879756644368172,
				0.0006959165330044925,
				0.023994170129299164
			],
			"min":[
				-0.04534146562218666,
				-0.0011607719352468848,
				-0.023994168266654015
			],
			"type":"VEC3"
		},
		{
			"bufferView":13,
			"componentType":5126,
			"count":197,
			"type":"VEC3"
		},
		{
			"bufferView":14,
			"componentType":5126,
			"count":197,
			"type":"VEC2"
		},
		{
			"bufferView":15,
			"componentType":5123,
			"count":573,
			"type":"SCALAR"
		},
		{
			"bufferView":16,
			"componentType":5126,
			"count":390,
			"max":[
				0.047222744673490524,
				0.000843342742882669,
				0.006812764797359705
			],
			"min":[
				0.03157230466604233,
				-0.0013429347891360521,
				-0.01776963472366333
			],
			"type":"VEC3"
		},
		{
			"bufferView":17,
			"componentType":5126,
			"count":390,
			"type":"VEC3"
		},
		{
			"bufferView":18,
			"componentType":5126,
			"count":390,
			"type":"VEC2"
		},
		{
			"bufferView":19,
			"componentType":5123,
			"count":1266,
			"type":"SCALAR"
		},
		{
			"bufferView":20,
			"componentType":5126,
			"count":1536,
			"max":[
				1,
				1,
				1
			],
			"min":[
				-33.50349044799805,
				-1.0249481201171875,
				-1.000000238418579
			],
			"type":"VEC3"
		},
		{
			"bufferView":21,
			"componentType":5126,
			"count":1536,
			"type":"VEC3"
		},
		{
			"bufferView":22,
			"componentType":5126,
			"count":1536,
			"type":"VEC2"
		},
		{
			"bufferView":23,
			"componentType":5123,
			"count":2976,
			"type":"SCALAR"
		},
		{
			"bufferView":24,
			"componentType":5126,
			"count":1656,
			"max":[
				1.0156233310699463,
				0,
				1.0091902017593384
			],
			"min":[
				-0.9843767285346985,
				-0.2969054579734802,
				-0.9908097386360168
			],
			"type":"VEC3"
		},
		{
			"bufferView":25,
			"componentType":5126,
			"count":1656,
			"type":"VEC3"
		},
		{
			"bufferView":26,
			"componentType":5126,
			"count":1656,
			"type":"VEC2"
		},
		{
			"bufferView":27,
			"componentType":5123,
			"count":2748,
			"type":"SCALAR"
		},
		{
			"bufferView":28,
			"componentType":5126,
			"count":6352,
			"max":[
				1.0137336254119873,
				1,
				1
			],
			"min":[
				-1,
				-1.1753945350646973,
				-3.2725749015808105
			],
			"type":"VEC3"
		},
		{
			"bufferView":29,
			"componentType":5126,
			"count":6352,
			"type":"VEC3"
		},
		{
			"bufferView":30,
			"componentType":5126,
			"count":6352,
			"type":"VEC2"
		},
		{
			"bufferView":31,
			"componentType":5123,
			"count":11688,
			"type":"SCALAR"
		},
		{
			"bufferView":32,
			"componentType":5126,
			"count":384,
			"max":[
				1,
				1,
				1
			],
			"min":[
				-1,
				-1,
				-3.068722724914551
			],
			"type":"VEC3"
		},
		{
			"bufferView":33,
			"componentType":5126,
			"count":384,
			"type":"VEC3"
		},
		{
			"bufferView":34,
			"componentType":5126,
			"count":384,
			"type":"VEC2"
		},
		{
			"bufferView":35,
			"componentType":5123,
			"count":744,
			"type":"SCALAR"
		},
		{
			"bufferView":36,
			"componentType":5126,
			"count":312,
			"max":[
				0.003196538658812642,
				0.0004206779703963548,
				0.0005237902514636517
			],
			"min":[
				-0.003196538658812642,
				0,
				-0.0005237902514636517
			],
			"type":"VEC3"
		},
		{
			"bufferView":37,
			"componentType":5126,
			"count":312,
			"type":"VEC3"
		},
		{
			"bufferView":38,
			"componentType":5126,
			"count":312,
			"type":"VEC2"
		},
		{
			"bufferView":39,
			"componentType":5123,
			"count":612,
			"type":"SCALAR"
		},
		{
			"bufferView":40,
			"componentType":5126,
			"count":192,
			"max":[
				1,
				1,
				1
			],
			"min":[
				-1,
				-1,
				-1
			],
			"type":"VEC3"
		},
		{
			"bufferView":41,
			"componentType":5126,
			"count":192,
			"type":"VEC3"
		},
		{
			"bufferView":42,
			"componentType":5126,
			"count":192,
			"type":"VEC2"
		},
		{
			"bufferView":43,
			"componentType":5123,
			"count":372,
			"type":"SCALAR"
		},
		{
			"bufferView":44,
			"componentType":5126,
			"count":552,
			"max":[
				0.001999999862164259,
				0.0020000000949949026,
				0.001999999862164259
			],
			"min":[
				-0.001999999862164259,
				-0.0020000000949949026,
				-0.001999999862164259
			],
			"type":"VEC3"
		},
		{
			"bufferView":45,
			"componentType":5126,
			"count":552,
			"type":"VEC3"
		},
		{
			"bufferView":46,
			"componentType":5126,
			"count":552,
			"type":"VEC2"
		},
		{
			"bufferView":47,
			"componentType":5123,
			"count":792,
			"type":"SCALAR"
		},
		{
			"bufferView":48,
			"componentType":5126,
			"count":702,
			"max":[
				1.0023826360702515,
				1.4710917472839355,
				32.76629638671875
			],
			"min":[
				-0.9063102006912231,
				-1.4696840047836304,
				-8.145766258239746
			],
			"type":"VEC3"
		},
		{
			"bufferView":49,
			"componentType":5126,
			"count":702,
			"type":"VEC3"
		},
		{
			"bufferView":50,
			"componentType":5126,
			"count":702,
			"type":"VEC2"
		},
		{
			"bufferView":51,
			"componentType":5123,
			"count":1719,
			"type":"SCALAR"
		},
		{
			"bufferView":52,
			"componentType":5126,
			"count":50,
			"max":[
				0.8346287608146667,
				0.9040651321411133,
				-0.9999999403953552
			],
			"min":[
				-0.8320508003234863,
				-0.9143588542938232,
				-6.896533012390137
			],
			"type":"VEC3"
		},
		{
			"bufferView":53,
			"componentType":5126,
			"count":50,
			"type":"VEC3"
		},
		{
			"bufferView":54,
			"componentType":5126,
			"count":50,
			"type":"VEC2"
		},
		{
			"bufferView":55,
			"componentType":5123,
			"count":93,
			"type":"SCALAR"
		},
		{
			"bufferView":56,
			"componentType":5126,
			"count":48,
			"max":[
				1,
				1,
				1
			],
			"min":[
				-1,
				-83.50177001953125,
				-1.559196949005127
			],
			"type":"VEC3"
		},
		{
			"bufferView":57,
			"componentType":5126,
			"count":48,
			"type":"VEC3"
		},
		{
			"bufferView":58,
			"componentType":5126,
			"count":48,
			"type":"VEC2"
		},
		{
			"bufferView":59,
			"componentType":5123,
			"count":72,
			"type":"SCALAR"
		}
	],
	"bufferViews":[
		{
			"buffer":0,
			"byteLength":134052,
			"byteOffset":0,
			"target":34962
		},
		{
			"buffer":0,
			"byteLength":134052,
			"byteOffset":134052,
			"target":34962
		},
		{
			"buffer":0,
			"byteLength":89368,
			"byteOffset":268104,
			"target":34962
		},
		{
			"buffer":0,
			"byteLength":71256,
			"byteOffset":357472,
			"target":34963
		},
		{
			"buffer":0,
			"byteLength":17952,
			"byteOffset":428728,
			"target":34962
		},
		{
			"buffer":0,
			"byteLength":17952,
			"byteOffset":446680,
			"target":34962
		},
		{
			"buffer":0,
			"byteLength":11968,
			"byteOffset":464632,
			"target":34962
		},
		{
			"buffer":0,
			"byteLength":9426,
			"byteOffset":476600,
			"target":34963
		},
		{
			"buffer":0,
			"byteLength":1536,
			"byteOffset":486028,
			"target":34962
		},
		{
			"buffer":0,
			"byteLength":1536,
			"byteOffset":487564,
			"target":34962
		},
		{
			"buffer":0,
			"byteLength":1024,
			"byteOffset":489100,
			"target":34962
		},
		{
			"buffer":0,
			"byteLength":768,
			"byteOffset":490124,
			"target":34963
		},
		{
			"buffer":0,
			"byteLength":2364,
			"byteOffset":490892,
			"target":34962
		},
		{
			"buffer":0,
			"byteLength":2364,
			"byteOffset":493256,
			"target":34962
		},
		{
			"buffer":0,
			"byteLength":1576,
			"byteOffset":495620,
			"target":34962
		},
		{
			"buffer":0,
			"byteLength":1146,
			"byteOffset":497196,
			"target":34963
		},
		{
			"buffer":0,
			"byteLength":4680,
			"byteOffset":498344,
			"target":34962
		},
		{
			"buffer":0,
			"byteLength":4680,
			"byteOffset":503024,
			"target":34962
		},
		{
			"buffer":0,
			"byteLength":3120,
			"byteOffset":507704,
			"target":34962
		},
		{
			"buffer":0,
			"byteLength":2532,
			"byteOffset":510824,
			"target":34963
		},
		{
			"buffer":0,
			"byteLength":18432,
			"byteOffset":513356,
			"target":34962
		},
		{
			"buffer":0,
			"byteLength":18432,
			"byteOffset":531788,
			"target":34962
		},
		{
			"buffer":0,
			"byteLength":12288,
			"byteOffset":550220,
			"target":34962
		},
		{
			"buffer":0,
			"byteLength":5952,
			"byteOffset":562508,
			"target":34963
		},
		{
			"buffer":0,
			"byteLength":19872,
			"byteOffset":568460,
			"target":34962
		},
		{
			"buffer":0,
			"byteLength":19872,
			"byteOffset":588332,
			"target":34962
		},
		{
			"buffer":0,
			"byteLength":13248,
			"byteOffset":608204,
			"target":34962
		},
		{
			"buffer":0,
			"byteLength":5496,
			"byteOffset":621452,
			"target":34963
		},
		{
			"buffer":0,
			"byteLength":76224,
			"byteOffset":626948,
			"target":34962
		},
		{
			"buffer":0,
			"byteLength":76224,
			"byteOffset":703172,
			"target":34962
		},
		{
			"buffer":0,
			"byteLength":50816,
			"byteOffset":779396,
			"target":34962
		},
		{
			"buffer":0,
			"byteLength":23376,
			"byteOffset":830212,
			"target":34963
		},
		{
			"buffer":0,
			"byteLength":4608,
			"byteOffset":853588,
			"target":34962
		},
		{
			"buffer":0,
			"byteLength":4608,
			"byteOffset":858196,
			"target":34962
		},
		{
			"buffer":0,
			"byteLength":3072,
			"byteOffset":862804,
			"target":34962
		},
		{
			"buffer":0,
			"byteLength":1488,
			"byteOffset":865876,
			"target":34963
		},
		{
			"buffer":0,
			"byteLength":3744,
			"byteOffset":867364,
			"target":34962
		},
		{
			"buffer":0,
			"byteLength":3744,
			"byteOffset":871108,
			"target":34962
		},
		{
			"buffer":0,
			"byteLength":2496,
			"byteOffset":874852,
			"target":34962
		},
		{
			"buffer":0,
			"byteLength":1224,
			"byteOffset":877348,
			"target":34963
		},
		{
			"buffer":0,
			"byteLength":2304,
			"byteOffset":878572,
			"target":34962
		},
		{
			"buffer":0,
			"byteLength":2304,
			"byteOffset":880876,
			"target":34962
		},
		{
			"buffer":0,
			"byteLength":1536,
			"byteOffset":883180,
			"target":34962
		},
		{
			"buffer":0,
			"byteLength":744,
			"byteOffset":884716,
			"target":34963
		},
		{
			"buffer":0,
			"byteLength":6624,
			"byteOffset":885460,
			"target":34962
		},
		{
			"buffer":0,
			"byteLength":6624,
			"byteOffset":892084,
			"target":34962
		},
		{
			"buffer":0,
			"byteLength":4416,
			"byteOffset":898708,
			"target":34962
		},
		{
			"buffer":0,
			"byteLength":1584,
			"byteOffset":903124,
			"target":34963
		},
		{
			"buffer":0,
			"byteLength":8424,
			"byteOffset":904708,
			"target":34962
		},
		{
			"buffer":0,
			"byteLength":8424,
			"byteOffset":913132,
			"target":34962
		},
		{
			"buffer":0,
			"byteLength":5616,
			"byteOffset":921556,
			"target":34962
		},
		{
			"buffer":0,
			"byteLength":3438,
			"byteOffset":927172,
			"target":34963
		},
		{
			"buffer":0,
			"byteLength":600,
			"byteOffset":930612,
			"target":34962
		},
		{
			"buffer":0,
			"byteLength":600,
			"byteOffset":931212,
			"target":34962
		},
		{
			"buffer":0,
			"byteLength":400,
			"byteOffset":931812,
			"target":34962
		},
		{
			"buffer":0,
			"byteLength":186,
			"byteOffset":932212,
			"target":34963
		},
		{
			"buffer":0,
			"byteLength":576,
			"byteOffset":932400,
			"target":34962
		},
		{
			"buffer":0,
			"byteLength":576,
			"byteOffset":932976,
			"target":34962
		},
		{
			"buffer":0,
			"byteLength":384,
			"byteOffset":933552,
			"target":34962
		},
		{
			"buffer":0,
			"byteLength":144,
			"byteOffset":933936,
			"target":34963
		}
	],
	"buffers":[
		{
			"byteLength":934080,
			"uri":"scene.bin"
		}
	]
}
