{
	"asset":{
		"generator":"Khronos glTF Blender I/O v4.3.47",
		"version":"2.0"
	},
	"scene":0,
	"scenes":[
		{
			"name":"Scene",
			"nodes":[
				0
			]
		}
	],
	"nodes":[
		{
			"mesh":0,
			"name":"Cross_Intersection",
			"rotation":[
				0.7071068286895752,
				0,
				0,
				0.7071068286895752
			],
			"scale":[
				4.742349624633789,
				4.742349624633789,
				4.742349624633789
			],
			"translation":[
				-139.64149475097656,
				0,
				-121.98281860351562
			]
		}
	],
	"meshes":[
		{
			"name":"Cross_Intersection",
			"primitives":[
				{
					"attributes":{
						"POSITION":0,
						"NORMAL":1,
						"TEXCOORD_0":2
					},
					"indices":3
				}
			]
		}
	],
	"accessors":[
		{
			"bufferView":0,
			"componentType":5126,
			"count":516,
			"max":[
				54,
				54,
				0.20000000298023224
			],
			"min":[
				-4,
				-4,
				-0.20000000298023224
			],
			"type":"VEC3"
		},
		{
			"bufferView":1,
			"componentType":5126,
			"count":516,
			"type":"VEC3"
		},
		{
			"bufferView":2,
			"componentType":5126,
			"count":516,
			"type":"VEC2"
		},
		{
			"bufferView":3,
			"componentType":5123,
			"count":1014,
			"type":"SCALAR"
		}
	],
	"bufferViews":[
		{
			"buffer":0,
			"byteLength":6192,
			"byteOffset":0,
			"target":34962
		},
		{
			"buffer":0,
			"byteLength":6192,
			"byteOffset":6192,
			"target":34962
		},
		{
			"buffer":0,
			"byteLength":4128,
			"byteOffset":12384,
			"target":34962
		},
		{
			"buffer":0,
			"byteLength":2028,
			"byteOffset":16512,
			"target":34963
		}
	],
	"buffers":[
		{
			"byteLength":18540,
			"uri":"scena.bin"
		}
	]
}
