{
	"asset":{
		"generator":"Khronos glTF Blender I/O v4.3.47",
		"version":"2.0"
	},
	"scene":0,
	"scenes":[
		{
			"name":"Scene",
			"nodes":[
				0,
				1,
				2
			]
		}
	],
	"nodes":[
		{
			"mesh":0,
			"name":"C\u00edrculo.001",
			"scale":[
				8.117505073547363,
				8.117505073547363,
				8.117505073547363
			],
			"translation":[
				40.56089782714844,
				-219.4622802734375,
				113.12645721435547
			]
		},
		{
			"mesh":1,
			"name":"C\u00edrculo",
			"rotation":[
				0.5879433751106262,
				0,
				0,
				0.8089020848274231
			],
			"scale":[
				74.56400299072266,
				74.56401062011719,
				74.56401062011719
			],
			"translation":[
				-90.5450439453125,
				-100.2767333984375,
				71.61897277832031
			]
		},
		{
			"mesh":2,
			"name":"Cubo",
			"scale":[
				81.72049713134766,
				38.01140213012695,
				81.72049713134766
			],
			"translation":[
				-91.58655548095703,
				-59.118682861328125,
				-56.5373420715332
			]
		}
	],
	"meshes":[
		{
			"name":"C\u00edrculo.005",
			"primitives":[
				{
					"attributes":{
						"POSITION":0,
						"NORMAL":1
					},
					"indices":2
				}
			]
		},
		{
			"name":"C\u00edrculo.003",
			"primitives":[
				{
					"attributes":{
						"POSITION":3,
						"NORMAL":4
					},
					"indices":5
				}
			]
		},
		{
			"name":"Cubo",
			"primitives":[
				{
					"attributes":{
						"POSITION":6,
						"NORMAL":7
					},
					"indices":8
				}
			]
		}
	],
	"accessors":[
		{
			"bufferView":0,
			"componentType":5126,
			"count":512,
			"max":[
				1.906482219696045,
				7.597936630249023,
				1.9064821004867554
			],
			"min":[
				-1.906482219696045,
				-0.3961658477783203,
				-1.906482219696045
			],
			"type":"VEC3"
		},
		{
			"bufferView":1,
			"componentType":5126,
			"count":512,
			"type":"VEC3"
		},
		{
			"bufferView":2,
			"componentType":5123,
			"count":840,
			"type":"SCALAR"
		},
		{
			"bufferView":3,
			"componentType":5126,
			"count":612,
			"max":[
				1.0696383714675903,
				0.16676665842533112,
				1.0696383714675903
			],
			"min":[
				-1.0696383714675903,
				-0.04294667765498161,
				-1.0696383714675903
			],
			"type":"VEC3"
		},
		{
			"bufferView":4,
			"componentType":5126,
			"count":612,
			"type":"VEC3"
		},
		{
			"bufferView":5,
			"componentType":5123,
			"count":1404,
			"type":"SCALAR"
		},
		{
			"bufferView":6,
			"componentType":5126,
			"count":5226,
			"max":[
				5.010850429534912,
				1,
				2.7259340286254883
			],
			"min":[
				-1.7158596515655518,
				-5.34654426574707,
				-0.13456419110298157
			],
			"type":"VEC3"
		},
		{
			"bufferView":7,
			"componentType":5126,
			"count":5226,
			"type":"VEC3"
		},
		{
			"bufferView":8,
			"componentType":5123,
			"count":18750,
			"type":"SCALAR"
		}
	],
	"bufferViews":[
		{
			"buffer":0,
			"byteLength":6144,
			"byteOffset":0,
			"target":34962
		},
		{
			"buffer":0,
			"byteLength":6144,
			"byteOffset":6144,
			"target":34962
		},
		{
			"buffer":0,
			"byteLength":1680,
			"byteOffset":12288,
			"target":34963
		},
		{
			"buffer":0,
			"byteLength":7344,
			"byteOffset":13968,
			"target":34962
		},
		{
			"buffer":0,
			"byteLength":7344,
			"byteOffset":21312,
			"target":34962
		},
		{
			"buffer":0,
			"byteLength":2808,
			"byteOffset":28656,
			"target":34963
		},
		{
			"buffer":0,
			"byteLength":62712,
			"byteOffset":31464,
			"target":34962
		},
		{
			"buffer":0,
			"byteLength":62712,
			"byteOffset":94176,
			"target":34962
		},
		{
			"buffer":0,
			"byteLength":37500,
			"byteOffset":156888,
			"target":34963
		}
	],
	"buffers":[
		{
			"byteLength":194388,
			"uri":"scene.bin"
		}
	]
}
